# xmcd
#
# Track frame offsets: 
#        150
#        13805
#        27060
#        38012
#        50320
#        63670
#        76445
#        89237
#        102110
#        114579
#        127235
#        139565
#        151890
#        165465
#        176932
#        189742
#        200820
#        214340
#        226612
#        239495
#        252502
#        265245
#        276827
#        289237
#        301792
#        314237
#        326060
#
# Disc length: 4478 seconds
#
# Revision: 1
# Processed by: cddbd v1.5.2PL0 Copyright (c) Steve Scherf et al.
# Submitted via: ExactAudioCopy v0.99pb4
#
DISCID=99117c1b
DTITLE=Various Artist - Country Hits Of The 40's
DYEAR=1900
DGENRE=Traditional Country
TTITLE0=Bing Crosby and The Andrews Sisters - Pistol Packin' Mama
TTITLE1=Al Dexter - So Long, Pal
TTITLE2=Nat King Cole - Straighten Up And Fly Right
TTITLE3=Louis Jordan - Is You Is Or Is You Ain't My Baby
TTITLE4=Red Foley - Smoke On The Water
TTITLE5=Tex Ritter - I'm Wastin' My Tears On You
TTITLE6=Al Dexter - I'm Losin' My Mind Over
TTITLE7=Spade Cooley with Tex Williams - Shame On You
TTITLE8=Gene Autry - At Mail Call Today
TTITLE9=Jack Guthrie - Oklahoma Hills
TTITLE10=Tex Ritter - You Two-Timed Me Once Too Often
TTITLE11=Al Dexter - Guitar Polka
TTITLE12=Merle Travis - Divorce Me C.O.D.
TTITLE13=Bob Wills with Tommy Duncan - New Spanish Two-Step
TTITLE14=Al Dexter - Wine, Women And Song
TTITLE15=Eddy Arnold - It's A Sin
TTITLE16=Merle Travis - So Round, So Firm, So Fully Packed
TTITLE17=Eddy Arnold - I'll Hold You In My Heart
TTITLE18=Tex Williams - Smoke, Smoke, Smoke That Cigarette
TTITLE19=Eddy Arnold - Anytime
TTITLE20=Jimmy Wakely - One Has My Name
TTITLE21=Eddy Arnold - Bouquet Of Roses
TTITLE22=Eddy Arnold - Just A Little Lovin'
TTITLE23=Jimmy Wakely - I Love You So Much It Hurts
TTITLE24=Hank Williams - Lovesick Blues
TTITLE25=Eddy Arnold - Don't Rob Another Man's Castle
TTITLE26=Margaret Whiting and Jimmy Wakely - Slipping Around
EXTD=
EXTT0=
EXTT1=
EXTT2=
EXTT3=
EXTT4=
EXTT5=
EXTT6=
EXTT7=
EXTT8=
EXTT9=
EXTT10=
EXTT11=
EXTT12=
EXTT13=
EXTT14=
EXTT15=
EXTT16=
EXTT17=
EXTT18=
EXTT19=
EXTT20=
EXTT21=
EXTT22=
EXTT23=
EXTT24=
EXTT25=
EXTT26=
PLAYORDER=
